<?xml version="1.0" encoding="utf-8"?>
<!-- Generator: Adobe Illustrator 22.1.0, SVG Export Plug-In . SVG Version: 6.00 Build 0)  -->
<svg version="1.1" id="Layer_1" xmlns="http://www.w3.org/2000/svg" xmlns:xlink="http://www.w3.org/1999/xlink" x="0px" y="0px"
	 viewBox="0 0 250 250" style="enable-background:new 0 0 250 250;" xml:space="preserve">
<style type="text/css">
	.st0{clip-path:url(#SVGID_2_);}
	.st1{fill:#FFFFFF;}
	.st2{fill:url(#SVGID_3_);}
	.st3{fill:url(#SVGID_4_);}
	.st4{filter:url(#Adobe_OpacityMaskFilter);}
	.st5{mask:url(#SVGID_5_);fill:url(#SVGID_6_);stroke:#6B6B6B;stroke-width:0.25;stroke-miterlimit:10;}
	.st6{fill:none;}
	.st7{fill:url(#SVGID_7_);}
	.st8{fill:url(#SVGID_8_);}
</style>
<g>
	<defs>
		<circle id="SVGID_1_" cx="124.5" cy="125.3" r="124.5"/>
	</defs>
	<clipPath id="SVGID_2_">
		<use xlink:href="#SVGID_1_"  style="overflow:visible;"/>
	</clipPath>
	<g class="st0">
		<circle class="st1" cx="122.8" cy="125.5" r="118.1"/>
		
			<linearGradient id="SVGID_3_" gradientUnits="userSpaceOnUse" x1="361.5136" y1="321.8683" x2="181.6895" y2="142.0442" gradientTransform="matrix(0.7071 0.7071 -0.7071 0.7071 96.1785 -230.5639)">
			<stop  offset="0" style="stop-color:#CCCCCC"/>
			<stop  offset="5.828840e-02" style="stop-color:#BABABA"/>
			<stop  offset="0.1753" style="stop-color:#8A8A8A"/>
			<stop  offset="0.2" style="stop-color:#7F7F7F"/>
			<stop  offset="0.2292" style="stop-color:#858585"/>
			<stop  offset="0.2673" style="stop-color:#959595"/>
			<stop  offset="0.3105" style="stop-color:#B0B0B0"/>
			<stop  offset="0.357" style="stop-color:#D6D6D6"/>
			<stop  offset="0.4" style="stop-color:#FFFFFF"/>
			<stop  offset="0.6" style="stop-color:#BDBDBD"/>
			<stop  offset="0.8" style="stop-color:#FFFFFF"/>
			<stop  offset="1" style="stop-color:#4D4D4D"/>
		</linearGradient>
		<path class="st2" d="M124.2,242.2c64.3,0,116.7-52.4,116.7-116.7c0-64.3-52.4-116.7-116.7-116.7C59.9,8.8,7.6,61.2,7.6,125.5
			C7.6,189.8,59.9,242.2,124.2,242.2z M251.4,125.5c0,70.2-56.9,127.1-127.1,127.1C54,252.7-2.9,195.7-2.9,125.5
			C-2.9,55.3,54-1.7,124.2-1.7C194.5-1.7,251.4,55.3,251.4,125.5z"/>
		
			<radialGradient id="SVGID_4_" cx="-73.4743" cy="-71.6955" r="200.4868" gradientTransform="matrix(0.6538 0 0 0.6538 172.2498 172.3762)" gradientUnits="userSpaceOnUse">
			<stop  offset="0.9176" style="stop-color:#FFFFFF"/>
			<stop  offset="0.9505" style="stop-color:#808080"/>
			<stop  offset="0.989" style="stop-color:#FFFFFF"/>
		</radialGradient>
		<path class="st3" d="M124.2,242.2c64.3,0,116.7-52.4,116.7-116.7c0-64.3-52.4-116.7-116.7-116.7C59.9,8.8,7.6,61.2,7.6,125.5
			C7.6,189.8,59.9,242.2,124.2,242.2z M255.3,125.5c0,72.4-58.7,131.1-131.1,131.1c-72.4,0-131.1-58.7-131.1-131.1
			C-6.9,53.1,51.8-5.6,124.2-5.6C196.6-5.6,255.3,53.1,255.3,125.5z"/>
		<defs>
			<filter id="Adobe_OpacityMaskFilter" filterUnits="userSpaceOnUse" x="7.4" y="8.7" width="233.6" height="233.6">
				<feFlood  style="flood-color:white;flood-opacity:1" result="back"/>
				<feBlend  in="SourceGraphic" in2="back" mode="normal"/>
			</filter>
		</defs>
		<mask maskUnits="userSpaceOnUse" x="7.4" y="8.7" width="233.6" height="233.6" id="SVGID_5_">
			<g class="st4">
			</g>
		</mask>
		<linearGradient id="SVGID_6_" gradientUnits="userSpaceOnUse" x1="124.227" y1="242.163" x2="124.227" y2="8.8415">
			<stop  offset="0" style="stop-color:#B3B3B3"/>
			<stop  offset="8.173200e-02" style="stop-color:#A1A1A1"/>
			<stop  offset="0.2" style="stop-color:#7F7F7F"/>
			<stop  offset="0.2292" style="stop-color:#858585"/>
			<stop  offset="0.2673" style="stop-color:#959595"/>
			<stop  offset="0.3105" style="stop-color:#B0B0B0"/>
			<stop  offset="0.357" style="stop-color:#D6D6D6"/>
			<stop  offset="0.4" style="stop-color:#FFFFFF"/>
			<stop  offset="0.6" style="stop-color:#BDBDBD"/>
			<stop  offset="0.8" style="stop-color:#FFFFFF"/>
			<stop  offset="1" style="stop-color:#4D4D4D"/>
		</linearGradient>
		<path class="st5" d="M124.2,8.8C59.9,8.8,7.6,61.2,7.6,125.5c0,64.3,52.3,116.7,116.6,116.7c64.3,0,116.7-52.4,116.7-116.7
			C240.9,61.2,188.5,8.8,124.2,8.8z M124.2,241.2c-63.8,0-115.7-51.9-115.7-115.7C8.5,61.7,60.4,9.8,124.2,9.8
			C188,9.8,240,61.7,240,125.5C240,189.3,188,241.2,124.2,241.2z"/>
		<g>
			<g>
				<rect x="122.2" y="18" width="4.1" height="14.2"/>
				<rect x="131.9" y="24.9" transform="matrix(0.1049 -0.9945 0.9945 0.1049 95.0358 156.9461)" width="5.7" height="1.6"/>
				<rect x="142.2" y="26.5" transform="matrix(0.2065 -0.9785 0.9785 0.2065 88.3905 163.6344)" width="5.7" height="1.6"/>
				<rect x="152.4" y="29.2" transform="matrix(0.3089 -0.9511 0.9511 0.3089 78.7017 168.3953)" width="5.7" height="1.6"/>
				<rect x="162.2" y="33" transform="matrix(0.407 -0.9134 0.9134 0.407 66.9899 170.7975)" width="5.7" height="1.6"/>
				<rect x="180.4" y="43.5" transform="matrix(0.5878 -0.809 0.809 0.5878 39.6799 166.4734)" width="5.7" height="1.6"/>
				<rect x="188.5" y="50.1" transform="matrix(0.6696 -0.7427 0.7427 0.6696 25.4203 158.9601)" width="5.7" height="1.6"/>
				<rect x="196" y="57.5" transform="matrix(0.7432 -0.6691 0.6691 0.7432 12.017 147.9858)" width="5.7" height="1.6"/>
				<rect x="202.6" y="65.7" transform="matrix(0.8098 -0.5866 0.5866 0.8098 4.662817e-02 133.1478)" width="5.7" height="1.6"/>
				<rect x="213.1" y="83.9" transform="matrix(0.9142 -0.4054 0.4054 0.9142 -15.7897 94.786)" width="5.7" height="1.6"/>
				<rect x="216.8" y="93.7" transform="matrix(0.9513 -0.3083 0.3083 0.9513 -18.428 72.3238)" width="5.7" height="1.6"/>
				<rect x="219.5" y="103.8" transform="matrix(0.9782 -0.2076 0.2076 0.9782 -16.8771 48.4515)" width="5.7" height="1.6"/>
				<polygon points="221.3,116.1 221.1,114.5 226.8,113.9 226.9,115.5 				"/>
				<rect x="223.2" y="133.1" transform="matrix(0.104 -0.9946 0.9946 0.104 65.4808 344.6562)" width="1.6" height="5.7"/>
				<rect x="221.6" y="143.5" transform="matrix(0.2084 -0.978 0.978 0.2084 32.8846 333.3557)" width="1.6" height="5.7"/>
				<rect x="218.9" y="153.7" transform="matrix(0.3104 -0.9506 0.9506 0.3104 2.6942 316.7349)" width="1.6" height="5.7"/>
				<rect x="215.1" y="163.5" transform="matrix(0.4069 -0.9135 0.9135 0.4069 -23.8734 295.8667)" width="1.6" height="5.7"/>
				<polygon points="202.6,183.5 203.6,182.2 208.2,185.5 207.2,186.8 				"/>
				<polygon points="196.1,191.4 197.2,190.2 201.4,193.9 200.4,195.2 				"/>
				<polygon points="188.9,198.5 190.1,197.4 193.9,201.6 192.7,202.7 				"/>
				<polygon points="180.9,204.9 182.2,203.9 185.5,208.5 184.2,209.5 				"/>
				<rect x="164.2" y="214.3" transform="matrix(0.9139 -0.406 0.406 0.9139 -73.9659 85.7154)" width="1.6" height="5.7"/>
				<rect x="154.4" y="218.1" transform="matrix(0.9515 -0.3077 0.3077 0.9515 -60.4512 58.4784)" width="1.6" height="5.7"/>
				<polygon points="143.7,221.1 145.3,220.7 146.5,226.3 144.9,226.6 				"/>
				<rect x="133.9" y="222.5" transform="matrix(0.9946 -0.1033 0.1033 0.9946 -22.5634 15.1273)" width="1.6" height="5.7"/>
				<polygon points="113.2,222.4 114.8,222.6 114.2,228.2 112.6,228.1 				"/>
				<polygon points="103.1,220.7 104.7,221.1 103.6,226.6 102,226.3 				"/>
				<polygon points="93.3,218 94.8,218.5 93.1,223.9 91.6,223.4 				"/>
				<polygon points="83.8,214.3 85.3,214.9 83,220.1 81.5,219.4 				"/>
				<rect x="62.4" y="205.9" transform="matrix(0.5878 -0.809 0.809 0.5878 -140.3342 137.9637)" width="5.7" height="1.6"/>
				<polygon points="58.4,197.4 59.6,198.5 55.8,202.7 54.6,201.6 				"/>
				<rect x="46.8" y="191.8" transform="matrix(0.7437 -0.6685 0.6685 0.7437 -116.0677 82.5454)" width="5.7" height="1.6"/>
				<polygon points="44.8,182.2 45.8,183.5 41.2,186.8 40.2,185.5 				"/>
				<polygon points="34.8,164.4 35.4,165.9 30.3,168.2 29.6,166.7 				"/>
				<polygon points="31.2,154.9 31.7,156.4 26.3,158.2 25.8,156.6 				"/>
				<rect x="23.2" y="145.6" transform="matrix(0.9783 -0.207 0.207 0.9783 -29.7279 8.558)" width="5.7" height="1.6"/>
				<polygon points="27.1,134.9 27.3,136.5 21.7,137.1 21.5,135.5 				"/>
				<polygon points="27.3,114.5 27.1,116.1 21.5,115.5 21.7,113.9 				"/>
				<polygon points="29,104.4 28.6,106 23.1,104.8 23.4,103.2 				"/>
				<polygon points="31.7,94.6 31.2,96.1 25.8,94.4 26.3,92.8 				"/>
				<polygon points="35.4,85.1 34.8,86.6 29.6,84.3 30.3,82.8 				"/>
				<polygon points="45.8,67.5 44.8,68.8 40.2,65.5 41.2,64.2 				"/>
				<polygon points="52.3,59.6 51.2,60.8 47,57 48.1,55.8 				"/>
				<polygon points="59.6,52.5 58.3,53.6 54.6,49.3 55.8,48.3 				"/>
				<polygon points="67.5,46.1 66.2,47.1 62.9,42.5 64.2,41.5 				"/>
				<polygon points="76.1,40.6 74.7,41.4 71.9,36.5 73.3,35.7 				"/>
				<polygon points="85.3,36.1 83.8,36.7 81.5,31.5 83,30.9 				"/>
				<polygon points="94.8,32.5 93.3,33 91.5,27.6 93.1,27.1 				"/>
				<polygon points="104.7,29.9 103.1,30.3 102,24.7 103.5,24.4 				"/>
				<polygon points="114.8,28.4 113.2,28.6 112.6,22.9 114.2,22.8 				"/>
				<rect x="72.6" y="33.5" transform="matrix(0.8661 -0.4999 0.4999 0.8661 -9.3705 42.1733)" width="2.9" height="10.1"/>
				<rect x="35.8" y="70.2" transform="matrix(0.5 -0.866 0.866 0.5 -46.5772 69.9501)" width="2.9" height="10.1"/>
				<rect x="32.2" y="174.2" transform="matrix(0.8662 -0.4997 0.4997 0.8662 -82.7938 42.1372)" width="10.1" height="2.9"/>
				<rect x="69" y="211" transform="matrix(0.5001 -0.866 0.866 0.5001 -146.9401 170.3037)" width="10.1" height="2.9"/>
				<rect x="172.9" y="207.3" transform="matrix(0.8664 -0.4994 0.4994 0.8664 -82.7762 115.4767)" width="2.9" height="10.1"/>
				<rect x="209.7" y="170.6" transform="matrix(0.5001 -0.866 0.866 0.5001 -46.5869 270.6577)" width="2.9" height="10.1"/>
				<rect x="206.1" y="73.9" transform="matrix(0.866 -0.5 0.5 0.866 -9.3703 115.6565)" width="10.1" height="2.9"/>
				<rect x="169.3" y="37.1" transform="matrix(0.5 -0.866 0.866 0.5 53.7899 170.3192)" width="10.1" height="2.9"/>
				<rect x="16.7" y="123.5" width="14.2" height="4.1"/>
				<rect x="122.2" y="218.8" width="4.1" height="14.2"/>
				<rect x="217.5" y="123.5" width="14.2" height="4.1"/>
			</g>
			<g>
				<path d="M196.9,158.8h4.3V169h2.2v2.7h-2.2v3.2h-3.4v-3.2h-7.2v-3L196.9,158.8z M197.8,162.2l-4.2,6.8h4.2V162.2z"/>
				<g>
					<path d="M120.7,52.7h-3.8V40.4l-2.8,2.1l-1.7-2.4l5-3.5h3.2L120.7,52.7z"/>
					<path d="M125.1,52.7v-2.8c0.8-0.6,1.5-1.3,2.2-2c0.7-0.7,1.4-1.4,2.1-2.1c0.7-0.7,1.3-1.5,1.9-2.3c0.5-0.8,0.8-1.6,0.8-2.3
						c0-0.6-0.2-1.2-0.7-1.5c-0.4-0.4-1-0.6-1.7-0.6c-0.9,0-1.7,0.2-2.5,0.5c-0.8,0.3-1.3,0.6-1.5,0.8l-0.2-3c0.4-0.2,1-0.5,1.9-0.7
						c0.9-0.3,1.9-0.4,2.9-0.4c1.7,0,3.1,0.4,4,1.2c1,0.8,1.5,2,1.5,3.5c0,1.1-0.4,2.3-1.1,3.4c-0.7,1.1-1.4,2-2,2.6
						c-0.4,0.5-0.9,1-1.4,1.5c-0.5,0.5-1,0.9-1.5,1.4h6.4l0,2.8H125.1z"/>
				</g>
				<path d="M170.9,63.1h-3.8V50.7l-2.8,2.1l-1.7-2.4l5-3.5h3.2L170.9,63.1z"/>
				<path d="M193.9,95.6v-2.8c0.8-0.6,1.5-1.3,2.2-2c0.7-0.7,1.4-1.4,2.1-2.1c0.7-0.7,1.3-1.5,1.9-2.3c0.5-0.8,0.8-1.6,0.8-2.3
					c0-0.6-0.2-1.2-0.7-1.5c-0.4-0.4-1-0.6-1.7-0.6c-0.9,0-1.7,0.2-2.5,0.5s-1.3,0.6-1.5,0.8l-0.2-3c0.4-0.2,1-0.5,1.9-0.7
					c0.9-0.3,1.9-0.4,2.9-0.4c1.7,0,3.1,0.4,4,1.2c1,0.8,1.5,2,1.5,3.5c0,1.1-0.4,2.3-1.1,3.4c-0.7,1.1-1.4,2-2,2.6
					c-0.4,0.5-0.9,1-1.4,1.5c-0.5,0.5-1,0.9-1.5,1.4h6.4l0,2.8H193.9z"/>
				<path d="M202.5,121.4l-0.2-2.9c0.3-0.2,0.9-0.3,1.7-0.5c0.8-0.2,1.8-0.3,2.8-0.3c1.8,0,3.2,0.4,4.3,1.1c1,0.7,1.6,1.8,1.6,3.2
					c0,0.9-0.3,1.7-0.8,2.3c-0.5,0.6-1.3,1.1-2.2,1.4c1.1,0.2,1.9,0.6,2.4,1.2c0.5,0.6,0.8,1.5,0.8,2.5c0,1.6-0.6,2.8-1.8,3.7
					c-1.2,0.9-2.8,1.3-4.8,1.3c-1,0-2-0.1-2.7-0.2c-0.8-0.1-1.3-0.3-1.8-0.4l0.2-3.1c0.2,0.2,0.7,0.3,1.4,0.5
					c0.7,0.2,1.5,0.3,2.4,0.3c1,0,1.7-0.2,2.4-0.6c0.6-0.4,0.9-0.9,0.9-1.6c0-0.8-0.3-1.3-0.9-1.7c-0.6-0.3-1.4-0.5-2.4-0.5l-1.5,0
					v-2.7l1.2,0c1.1,0,2-0.2,2.6-0.5c0.6-0.3,0.9-0.8,0.9-1.5c0-0.6-0.2-1.1-0.7-1.4c-0.5-0.3-1.2-0.5-2.1-0.5
					c-0.8,0-1.5,0.1-2.2,0.3C203.2,121.1,202.8,121.3,202.5,121.4z"/>
				<path d="M171.5,189v2.7H165l0,3.1l1.4-0.1c1.8,0,3.1,0.5,4.1,1.4c1,0.9,1.5,2.2,1.5,3.8c0,1.8-0.6,3.1-1.8,4.1
					c-1.2,1-2.8,1.5-4.9,1.5c-1,0-1.9-0.1-2.7-0.2c-0.8-0.2-1.2-0.3-1.4-0.3l0.1-3.2c0.2,0.1,0.6,0.3,1.3,0.5
					c0.7,0.2,1.5,0.3,2.3,0.3c1,0,1.8-0.2,2.4-0.7c0.6-0.5,0.9-1.1,0.9-2c0-0.8-0.3-1.5-1-1.9c-0.7-0.4-1.6-0.7-2.7-0.7
					c-0.6,0-1.1,0-1.7,0.1c-0.5,0.1-1,0.2-1.4,0.3l0.1-8.7H171.5z"/>
				<path d="M130.1,209.3c0,1.6-0.5,2.9-1.6,4c-1,1-2.4,1.5-4,1.5c-1.8,0-3.3-0.6-4.3-1.9c-1-1.2-1.6-3.2-1.6-6
					c0-2.6,0.6-4.8,1.8-6.4c1.2-1.6,2.8-2.4,5-2.5c0.8,0,1.5,0.1,2.2,0.2c0.6,0.1,1.2,0.3,1.5,0.5l-0.4,2.7h0.1
					c-0.4-0.2-0.9-0.3-1.4-0.5c-0.5-0.1-1-0.2-1.5-0.2c-1.5,0.2-2.6,0.8-3.2,1.9c-0.4,0.8-0.7,1.9-0.7,3.2c0.3-0.5,0.7-0.9,1.2-1.1
					c0.6-0.4,1.3-0.5,2-0.5c1.5,0,2.7,0.5,3.5,1.4C129.7,206.5,130.1,207.7,130.1,209.3z M122.2,209.6c0.1,0.7,0.3,1.2,0.4,1.5
					c0.4,0.7,0.9,1.1,1.8,1.1c0.6,0,1.1-0.3,1.5-0.8c0.4-0.5,0.6-1.1,0.6-1.9c0-0.8-0.2-1.4-0.6-1.9c-0.4-0.5-0.9-0.7-1.5-0.7
					c-0.7,0-1.2,0.3-1.6,0.8C122.5,208.1,122.4,208.7,122.2,209.6z"/>
				<path d="M88.9,189.3v2.9l-5.8,13.2h-0.4l-3.2-0.1H79l6-13.2h-7.1v-2.8H88.9z"/>
				<path d="M47.9,166.3c-1-0.4-1.7-1-2.1-1.7c-0.4-0.7-0.6-1.3-0.6-2c0-1.4,0.5-2.5,1.5-3.3c1-0.8,2.3-1.2,4.1-1.2
					c1.7,0,3,0.4,4,1.1c1,0.7,1.5,1.7,1.5,3c0,0.8-0.3,1.5-0.8,2.3c-0.5,0.7-1.2,1.2-2,1.5c1.1,0.4,2,1,2.5,1.7
					c0.5,0.7,0.7,1.5,0.7,2.6c0,1.4-0.5,2.6-1.6,3.4c-1.1,0.8-2.5,1.2-4.3,1.2c-1.8,0-3.3-0.4-4.3-1.2c-1.1-0.8-1.6-1.9-1.6-3.4
					c0-1,0.3-1.8,0.8-2.5C46.1,167.2,46.8,166.7,47.9,166.3z M50.5,167.5c-0.7,0.4-1.2,0.7-1.5,1.1c-0.3,0.4-0.5,0.9-0.5,1.5
					c0,0.6,0.2,1,0.7,1.4c0.5,0.4,1,0.6,1.6,0.6c0.6,0,1.1-0.2,1.5-0.6c0.4-0.4,0.6-0.9,0.6-1.5c0-0.6-0.2-1.2-0.6-1.6
					C51.9,168.1,51.3,167.8,50.5,167.5z M50.7,160.8c-0.6,0-1.1,0.2-1.4,0.6c-0.4,0.4-0.6,0.8-0.6,1.4c0,0.5,0.2,0.9,0.6,1.4
					c0.4,0.4,0.9,0.7,1.7,0.9c0.4-0.1,0.8-0.4,1.2-0.8c0.4-0.4,0.6-0.9,0.6-1.5c0-0.6-0.2-1-0.6-1.4C51.8,161,51.3,160.8,50.7,160.8
					z"/>
				<path d="M36.1,123.3c0-1.6,0.5-3,1.6-4c1-1,2.4-1.5,4-1.5c1.9,0,3.3,0.6,4.3,1.9c1,1.2,1.5,3.2,1.5,6c0,2.6-0.6,4.8-1.8,6.4
					c-1.2,1.6-2.8,2.4-5,2.5c-0.8,0-1.5-0.1-2.2-0.2c-0.6-0.1-1.1-0.3-1.5-0.5l0.3-2.7h-0.2c0.4,0.2,0.9,0.4,1.4,0.5
					c0.5,0.1,1,0.2,1.5,0.2c1.5-0.2,2.5-0.8,3.1-1.8c0.4-0.8,0.7-1.8,0.7-3.1c-0.3,0.5-0.7,0.8-1.2,1.1c-0.6,0.3-1.3,0.5-2,0.5
					c-1.5,0-2.7-0.5-3.5-1.4C36.5,126.2,36.1,124.9,36.1,123.3z M43.9,123c-0.1-0.7-0.2-1.2-0.4-1.5c-0.3-0.8-0.9-1.2-1.8-1.2
					c-0.6,0-1.1,0.2-1.5,0.7c-0.4,0.5-0.6,1.1-0.6,1.9c0,0.8,0.2,1.4,0.6,1.9c0.4,0.5,0.9,0.7,1.5,0.7c0.7,0,1.2-0.3,1.6-0.8
					C43.7,124.6,43.8,123.9,43.9,123z"/>
				<g>
					<path d="M53.2,95.3h-3.8V83l-2.8,2.1L45,82.7l5-3.5h3.2L53.2,95.3z"/>
					<path d="M69.3,87.3c0,2.7-0.5,4.7-1.4,6.2c-1,1.4-2.5,2.2-4.5,2.2c-2,0-3.5-0.7-4.5-2.2c-1-1.4-1.4-3.5-1.4-6.2
						c0-2.7,0.5-4.8,1.4-6.2c1-1.4,2.5-2.2,4.5-2.2c2,0,3.5,0.7,4.5,2.2C68.8,82.5,69.3,84.6,69.3,87.3z M65.6,87.3
						c0-1.8-0.2-3.2-0.5-4.2c-0.3-1-0.9-1.5-1.8-1.5c-0.9,0-1.4,0.5-1.7,1.5c-0.3,1-0.5,2.4-0.5,4.2c0,1.8,0.2,3.2,0.5,4.2
						c0.3,1,0.9,1.5,1.8,1.5c0.9,0,1.4-0.5,1.7-1.5C65.4,90.5,65.6,89.1,65.6,87.3z"/>
				</g>
				<g>
					<path d="M82.6,63.1h-3.8V50.7l-2.8,2.1l-1.7-2.4l5-3.5h3.2L82.6,63.1z"/>
					<path d="M96.1,63.1h-3.8V50.7l-2.8,2.1l-1.7-2.4l5-3.5h3.2L96.1,63.1z"/>
				</g>
			</g>
		</g>
		<rect x="51.9" y="52.4" class="st6" width="145.9" height="147.7"/>
	</g>
</g>
<g>
	<path class="st1" d="M141.1,179.4c-10.6,0-21.3,0-31.9,0c0-3.6,0-7.2,0-10.8c10.6,0,21.3,0,31.9,0
		C141.1,172.2,141.1,175.8,141.1,179.4z M118.1,179c2,0.3,2.1,0.3,2.8-1.3c0.6-1.2,1.3-1.6,2.6-1.5c0.8,0.1,1.7,0,2.5,0
		c-0.2-2-1.7-1.9-3.2-1.8c0.6-1.2,1.2-2.2,1.8-3.4c0.3,0.4,0.4,0.7,0.6,0.9c1.2,2.1,2.4,4.2,3.7,6.4c0.1,0.2,0.4,0.5,0.6,0.6
		c0.7,0.1,1.4,0,2.3,0c0-0.4,0-0.7,0-1c0-2.1,0-4.3-0.1-6.4c0-0.6,0.2-0.9,0.9-0.9c1,0,2.1,0,3.1,0c1.6,0.1,2.8,1,3.1,2.5
		c0.5,2.4-0.9,4.2-3.4,4.2c-0.8,0-1.5,0-2.3,0c0,0.6,0,1.1,0,1.6c1.1,0,2.1,0.1,3.2,0c2.2-0.2,4-2.1,4.2-4.4c0.1-2.9-1.1-5-3.7-5.3
		c-1.9-0.2-3.9-0.1-5.8-0.2c-0.6,0-0.8,0.2-0.8,0.8c0,2,0,4,0,6c0,0.3,0,0.5-0.1,0.8c-0.3-0.2-0.4-0.3-0.5-0.5
		c-1.2-2.1-2.4-4.2-3.7-6.2c-0.7-1.2-1.8-1.2-2.5-0.1C121.6,172.9,119.9,175.9,118.1,179z M119.8,169.4c-0.1-0.1-0.1-0.2-0.2-0.3
		c-1.9,0-3.7,0-5.6,0c-2.5,0-4.4,1.8-4.6,4.2c-0.3,2.8,1.1,5.2,3.6,5.7c1.3,0.3,2.6,0.2,4,0.3c0-0.7,0-1.3,0-1.9
		c-1.1,0-2.1,0.1-3.1,0c-1.7-0.2-2.8-1.5-2.7-3.3c0.1-1.8,1.3-3,3-3c1.2,0,2.3,0,3.5,0c0.3,0,0.7-0.2,1-0.4
		C119,170.1,119.4,169.7,119.8,169.4z"/>
	<linearGradient id="SVGID_7_" gradientUnits="userSpaceOnUse" x1="115.4215" y1="174.1212" x2="137.7855" y2="174.1212">
		<stop  offset="0" style="stop-color:#636363"/>
		<stop  offset="1" style="stop-color:#999999"/>
	</linearGradient>
	<path class="st7" d="M118.1,179c1.8-3.1,3.6-6.2,5.4-9.2c0.7-1.1,1.8-1.1,2.5,0.1c1.3,2.1,2.5,4.2,3.7,6.2c0.1,0.2,0.2,0.3,0.5,0.5
		c0-0.3,0-0.5,0.1-0.8c0-2,0-4,0-6c0-0.6,0.2-0.8,0.8-0.8c1.9,0.1,3.9-0.1,5.8,0.2c2.5,0.3,3.8,2.3,3.7,5.3
		c-0.1,2.2-1.9,4.2-4.2,4.4c-1,0.1-2.1,0-3.2,0c0-0.5,0-1,0-1.6c0.8,0,1.5,0,2.3,0c2.5,0,3.9-1.8,3.4-4.2c-0.3-1.4-1.5-2.4-3.1-2.5
		c-1,0-2.1,0-3.1,0c-0.7,0-0.9,0.3-0.9,0.9c0,2.1,0.1,4.3,0.1,6.4c0,0.3,0,0.6,0,1c-0.8,0-1.5,0-2.3,0c-0.2,0-0.5-0.3-0.6-0.6
		c-1.2-2.1-2.5-4.2-3.7-6.4c-0.2-0.3-0.3-0.5-0.6-0.9c-0.6,1.1-1.2,2.2-1.8,3.4c1.5-0.1,3-0.3,3.2,1.8c-0.8,0-1.7,0.1-2.5,0
		c-1.3-0.2-2,0.3-2.6,1.5C120.2,179.4,120.1,179.3,118.1,179z"/>
	<linearGradient id="SVGID_8_" gradientUnits="userSpaceOnUse" x1="110.995" y1="174.1094" x2="121.4989" y2="174.1094">
		<stop  offset="0" style="stop-color:#636363"/>
		<stop  offset="1" style="stop-color:#999999"/>
	</linearGradient>
	<path class="st8" d="M119.8,169.4c-0.4,0.4-0.9,0.7-1.3,1.1c-0.3,0.2-0.6,0.4-1,0.4c-1.2,0.1-2.3,0-3.5,0c-1.7,0.1-2.9,1.3-3,3
		c-0.1,1.8,0.9,3.1,2.7,3.3c1,0.1,2.1,0,3.1,0c0,0.7,0,1.2,0,1.9c-1.4-0.1-2.7,0-4-0.3c-2.5-0.5-3.9-2.9-3.6-5.7
		c0.3-2.4,2.2-4.1,4.6-4.2c1.9,0,3.7,0,5.6,0C119.7,169.2,119.8,169.3,119.8,169.4z"/>
</g>
</svg>
