<?xml version="1.0" encoding="utf-8"?>
<!-- Generator: Adobe Illustrator 22.1.0, SVG Export Plug-In . SVG Version: 6.00 Build 0)  -->
<svg version="1.1" id="Layer_1" xmlns="http://www.w3.org/2000/svg" xmlns:xlink="http://www.w3.org/1999/xlink" x="0px" y="0px"
	 viewBox="0 0 30 30" style="enable-background:new 0 0 30 30;" xml:space="preserve">
<style type="text/css">
	.st0{fill:url(#SVGID_1_);}
	.st1{fill:url(#SVGID_2_);}
	.st2{fill:url(#SVGID_3_);}
	.st3{fill:url(#SVGID_4_);}
</style>
<linearGradient id="SVGID_1_" gradientUnits="userSpaceOnUse" x1="-147.9114" y1="-146.6628" x2="-147.9114" y2="-124.1649" gradientTransform="matrix(0.8069 0.5906 0.5906 -0.8069 214.3256 -6.9108)">
	<stop  offset="0" style="stop-color:#C60000"/>
	<stop  offset="1" style="stop-color:#FF4146"/>
</linearGradient>
<path class="st0" d="M8.4,24.1c-5-3.7-6.1-10.7-2.4-15.7c3.7-5,10.7-6.1,15.7-2.4c5,3.7,6.1,10.7,2.4,15.7
	C20.4,26.7,13.4,27.7,8.4,24.1z"/>
<linearGradient id="SVGID_2_" gradientUnits="userSpaceOnUse" x1="-147.9092" y1="-141.3347" x2="-147.9092" y2="-129.494" gradientTransform="matrix(0.8069 0.5906 0.5906 -0.8069 214.3256 -6.9108)">
	<stop  offset="5.076140e-03" style="stop-color:#5B0707"/>
	<stop  offset="1" style="stop-color:#D00B0C"/>
</linearGradient>
<path class="st1" d="M11.5,19.8c-2.6-1.9-3.2-5.6-1.3-8.3c1.9-2.6,5.6-3.2,8.3-1.3c2.6,1.9,3.2,5.6,1.3,8.3
	C17.8,21.1,14.1,21.7,11.5,19.8z"/>
<linearGradient id="SVGID_3_" gradientUnits="userSpaceOnUse" x1="-147.9106" y1="-140.0663" x2="-147.9106" y2="-130.7659" gradientTransform="matrix(0.8069 0.5906 0.5906 -0.8069 214.3256 -6.9108)">
	<stop  offset="0" style="stop-color:#FFFFFF"/>
	<stop  offset="1" style="stop-color:#FFFFFF"/>
</linearGradient>
<path class="st2" d="M12.3,18.8c-2.1-1.5-2.5-4.4-1-6.5c1.5-2.1,4.4-2.5,6.5-1c2.1,1.5,2.5,4.4,1,6.5C17.2,19.8,14.3,20.3,12.3,18.8
	z"/>
<path d="M13.7,16.8c-1-0.7-1.2-2.2-0.5-3.2c0.7-1,2.2-1.2,3.2-0.5c1,0.7,1.2,2.1,0.5,3.2C16.1,17.3,14.7,17.6,13.7,16.8z"/>
<linearGradient id="SVGID_4_" gradientUnits="userSpaceOnUse" x1="-147.9117" y1="-149.7121" x2="-147.9117" y2="-121.1175" gradientTransform="matrix(0.8069 0.5906 0.5906 -0.8069 214.3256 -6.9108)">
	<stop  offset="5.076140e-03" style="stop-color:#5B0707"/>
	<stop  offset="1" style="stop-color:#D00B0C"/>
</linearGradient>
<path class="st3" d="M6.6,26.5c-6.4-4.7-7.8-13.6-3.1-20c4.7-6.4,13.6-7.8,20-3.1c6.4,4.7,7.7,13.6,3.1,20
	C21.9,29.8,12.9,31.2,6.6,26.5z M23.2,21c3.3-4.5,2.3-10.9-2.2-14.2C16.5,3.5,10.1,4.5,6.8,9C3.5,13.5,4.5,19.9,9,23.2
	C13.5,26.5,19.9,25.5,23.2,21z"/>
</svg>
